<svg width="1080" height="1080" viewBox="0 0 1080 1080" fill="none" xmlns="http://www.w3.org/2000/svg">
<rect width="1080" height="1080" fill="#0BD8B6"/>
<path fill-rule="evenodd" clip-rule="evenodd" d="M220.528 447.656C238.625 438.892 260.416 446.425 269.2 464.482L294.681 516.864L320.576 464.315C329.451 446.304 351.28 438.881 369.333 447.737C387.385 456.592 394.824 478.372 385.949 496.384L327.157 615.693C321.016 628.154 308.295 636.035 294.377 636C280.46 635.964 267.779 628.019 261.702 615.527L203.664 496.218C194.88 478.161 202.431 456.419 220.528 447.656ZM480.872 444.008C494.788 444.044 507.47 451.989 513.548 464.482L571.584 583.79C577.064 595.053 576.346 608.336 569.688 618.946C563.028 629.556 551.364 636 538.818 636H421.987C409.406 636 397.717 629.523 391.067 618.868C384.417 608.213 383.749 594.889 389.3 583.625L448.092 464.315C454.232 451.854 466.955 443.973 480.872 444.008ZM613.727 480.349C613.727 460.279 630.032 444.008 650.15 444.008H701.694C702.703 444.008 703.716 444.05 704.722 444.134L719.21 445.341C723.56 445.704 731.263 446.74 739.363 451.013C781.551 473.266 781.551 534.059 739.363 556.313C731.263 560.585 723.56 561.622 719.21 561.985L704.722 563.191C703.716 563.275 702.703 563.317 701.694 563.317H686.573V599.659C686.573 619.729 670.265 636 650.15 636C630.032 636 613.727 619.729 613.727 599.659V480.349ZM842.577 444.008C862.692 444.008 879 460.279 879 480.349V599.659C879 619.729 862.692 636 842.577 636C822.46 636 806.152 619.729 806.152 599.659V480.349C806.152 460.279 822.46 444.008 842.577 444.008ZM480.481 563.317H480.652L480.568 563.145L480.481 563.317Z" fill="#000714"/>
</svg>
